<svg id="레이어_1" data-name="레이어 1" xmlns="http://www.w3.org/2000/svg" viewBox="0 0 16 16"><defs><style>.cls-1{fill:#b0b6c1;}.cls-2{fill:#dfe1e5;}</style></defs><path class="cls-1" d="M7.253.489A12.822,12.822,0,0,1,.489,7.253a.815.815,0,0,0,0,1.494,12.822,12.822,0,0,1,6.764,6.764.815.815,0,0,0,1.494,0,12.822,12.822,0,0,1,6.764-6.764.815.815,0,0,0,0-1.494A12.822,12.822,0,0,1,8.747.489.815.815,0,0,0,7.253.489Z"/><path class="cls-2" d="M9.177,4.347a.988.988,0,0,0-.075-.9A8.527,8.527,0,0,1,8.56,2.367a.611.611,0,0,0-1.12,0A9.622,9.622,0,0,1,2.367,7.44a.611.611,0,0,0,0,1.12A8.4,8.4,0,0,1,3.448,9.1a.988.988,0,0,0,.9.075A9.512,9.512,0,0,0,9.177,4.347Z"/></svg>